# Blender v2.90.1 OBJ File: 'FukushimaBuildings.blend'
# www.blender.org
mtllib Garagewall.mtl
o Garagewall
v -30.365166 0.073318 -0.004249
v -21.657740 0.158855 -0.008003
v -30.340725 9.509188 -0.473295
v -21.914352 9.472528 -0.474951
v -30.354406 4.227054 -0.482240
v -21.770510 4.251801 -0.470087
v -30.356844 3.285761 -0.015662
v -21.744953 3.324284 -0.010306
v -21.744953 3.324284 -0.001238
v -21.770510 4.251801 -0.020455
v -30.354406 4.227054 -0.018921
v -30.356844 3.285761 -0.014591
v -27.447830 0.101976 -0.015806
v -27.517555 9.496905 -0.480787
v -27.478458 4.235345 -0.495257
v -27.471518 3.298667 -0.007049
v -27.478458 4.235345 -0.016902
v -27.471518 3.298667 -0.005192
v -27.320679 0.103225 -0.013594
v -27.344168 9.496151 -0.473793
v -27.301830 4.235855 -0.473846
v -27.360441 3.299164 -0.000592
v -27.301830 4.235855 -0.005492
v -24.861109 0.127387 -0.009724
v -25.075649 9.486281 -0.468412
v -24.990906 4.242517 -0.498026
v -24.975851 3.309831 -0.005532
v -24.990906 4.242517 -0.029023
v -24.975851 3.309831 -0.021518
v -24.729750 0.128677 -0.008338
v -24.887207 9.485462 -0.477123
v -24.798939 4.243070 -0.491678
v -24.852974 3.310381 -0.022932
v -24.798939 4.243071 -0.027574
v -30.360622 1.827027 -0.002603
v -21.705351 1.886898 -0.002668
v -27.413269 1.847414 -0.021271
v -27.282665 1.848318 -0.001543
v -24.952524 1.864437 -0.014265
v -24.821869 1.865340 -0.011640
v -21.744953 3.324284 0.219870
v -21.770510 4.251801 0.219351
v -27.478458 4.235345 0.199965
v -30.354406 4.227054 0.208772
v -30.356844 3.285761 0.215470
v -27.471518 3.298667 0.205011
v -27.301830 4.235855 0.193624
v -24.990906 4.242517 0.193624
v -24.798939 4.243071 0.214434
v -24.975851 3.309831 0.222132
v -27.360441 3.299164 0.215641
v -24.852974 3.310381 0.212329
v -27.360441 3.299164 0.036750
v -27.471518 3.298667 0.035840
v -27.413269 1.847414 0.021740
v -27.447830 0.101976 0.036768
v -27.320679 0.103225 0.022410
v -27.282665 1.848318 0.026229
v -24.852974 3.310381 0.030272
v -24.975851 3.309831 0.014589
v -24.952524 1.864437 0.027611
v -24.861109 0.127387 0.036617
v -24.729750 0.128677 0.037776
v -24.821869 1.865340 0.034459
v -21.834648 6.579698 -0.474125
v -30.348307 6.582332 -0.468246
v -27.495892 6.581450 -0.467775
v -27.320709 6.581395 -0.486813
v -25.028692 6.580686 -0.479202
v -24.617977 6.580560 -0.482944
v -30.352333 5.027461 -0.488450
v -21.792305 5.042903 -0.476541
v -27.484383 5.032635 -0.477102
v -27.308247 5.032952 -0.493883
v -25.003746 5.037110 -0.470186
v -24.812315 5.037455 -0.482450
v -28.075771 9.499333 -0.474408
v -28.047110 4.233706 -0.487366
v -28.042023 3.296115 -0.015249
v -28.047110 4.233706 -0.025387
v -28.042023 3.296115 -0.001683
v -28.024664 0.096310 -0.007947
v -27.996038 1.843383 -0.001411
v -28.047110 4.233706 0.205896
v -28.042023 3.296115 0.202143
v -28.059891 6.581624 -0.485790
v -28.051453 5.031612 -0.495465
v -23.686443 9.480238 -0.476133
v -23.575729 4.246597 -0.484767
v -23.575729 4.246597 -0.018873
v -23.597618 3.315996 -0.017043
v -23.575729 4.246597 0.204709
v -23.597618 3.315996 0.211556
v -23.625097 6.580252 -0.478602
v -23.592506 5.039656 -0.480040
v -27.484383 5.032635 -0.297694
v -27.495892 6.581450 -0.275222
v -27.308247 5.032952 -0.286317
v -27.320709 6.581395 -0.291446
v -24.631344 5.053479 -0.282049
v -24.656290 6.597055 -0.275942
v -24.664299 5.037455 -0.334158
v -24.585936 6.634055 0.036151
v -23.614758 6.606566 0.029364
v -23.592506 5.039656 -0.269026
v -28.059891 6.581624 -0.274940
v -28.051453 5.031612 -0.275652
v -24.981428 9.485872 -0.472918
v -24.894922 4.242794 -0.486616
v -24.894922 4.242794 -0.002875
v -24.914413 3.310106 -0.005061
v -24.894922 4.242794 0.203021
v -24.914413 3.310106 0.197554
v -24.933495 6.580657 -0.477605
v -24.908030 5.037282 -0.473107
v -24.659260 6.620224 -0.344497
v -24.669561 5.037282 -0.353894
v -22.181618 1.883604 -0.008791
v -22.321390 6.579849 -0.484066
v -22.130148 0.154214 -0.006771
v -22.224432 3.322139 0.214744
v -22.252060 4.250413 0.219329
v -22.275620 5.042031 -0.475542
v -22.407545 9.474674 -0.473161
v -22.219984 3.322159 -0.022244
v -22.219984 3.322159 -0.006127
v -22.223228 4.250496 -0.477679
v -21.867290 7.764435 -0.481082
v -28.066109 7.724287 -0.482390
v -22.356552 7.761267 -0.483898
v -30.345387 7.709525 -0.480113
v -25.047489 7.743837 -0.479270
v -27.329945 7.729055 -0.474689
v -27.504410 7.727925 -0.482143
v -24.725985 7.745919 -0.474601
v -24.952696 7.744452 -0.469090
v -23.649902 7.752889 -0.468737
v -29.923100 1.830053 -0.003297
v -29.886986 5.028301 -0.482744
v -29.896019 4.228376 0.212382
v -29.942890 0.077466 -0.011832
v -29.836411 9.506993 -0.472742
v -29.906639 3.287775 0.226048
v -29.856672 7.712690 -0.479272
v -29.869438 6.582184 -0.471441
v -29.950443 3.287579 -0.018379
v -29.950443 3.287579 -0.016680
v -21.896046 8.808079 -0.471227
v -27.512442 8.808771 -0.467434
v -27.338634 8.808749 -0.472026
v -25.064695 8.808470 -0.471308
v -24.824492 8.808779 -0.479323
v -28.072012 8.808840 -0.469828
v -23.672230 8.808298 -0.480681
v -24.970251 8.808458 -0.483086
v -22.387709 8.808157 -0.473522
v -30.342539 8.809118 -0.471558
v -29.844292 8.809008 -0.475826
v -30.360622 1.827027 -0.131494
v -30.365166 0.073318 -0.117915
v -22.130148 0.154214 -0.120745
v -21.657740 0.158855 -0.117759
v -21.705351 1.886898 -0.122165
v -21.744953 3.324284 -0.126451
v -29.950443 3.287579 -0.117802
v -30.356844 3.285761 -0.126432
v -29.923100 1.830053 -0.121904
v -21.792305 5.042903 -0.591579
v -21.834648 6.579698 -0.592740
v -30.345387 7.709525 -0.588142
v -30.348307 6.582332 -0.589805
v -29.869438 6.582184 -0.592349
v -30.352333 5.027461 -0.595725
v -21.770510 4.251801 -0.599123
v -29.886986 5.028301 -0.585583
v -22.181618 1.883604 -0.118102
v -22.321390 6.579849 -0.586848
v -22.275620 5.042031 -0.604050
v -22.219984 3.322159 -0.122902
v -22.223228 4.250496 -0.588819
v -21.867290 7.764435 -0.596403
v -22.356552 7.761267 -0.584834
v -30.342539 8.809118 -0.585928
v -24.952696 7.744452 -0.601916
v -24.725985 7.745919 -0.600506
v -25.047489 7.743837 -0.587543
v -27.329945 7.729055 -0.587552
v -27.504410 7.727925 -0.591123
v -23.649902 7.752889 -0.592974
v -29.856672 7.712690 -0.591386
v -28.066109 7.724287 -0.599183
v -29.942890 0.077466 -0.122180
v -21.896046 8.808079 -0.583807
v -27.512442 8.808771 -0.582974
v -27.338634 8.808749 -0.599474
v -25.064695 8.808470 -0.588038
v -24.824492 8.808779 -0.598204
v -28.072012 8.808840 -0.590348
v -23.672230 8.808298 -0.595730
v -24.970251 8.808458 -0.591549
v -22.387709 8.808157 -0.593952
v -29.844292 8.809008 -0.593701
vt 0.694798 0.684947
vt 0.826096 0.684905
vt 0.822555 0.807881
vt 0.692300 0.807009
vt 0.000000 0.000000
vt 0.000000 0.000000
vt 0.000000 0.000000
vt 0.000000 0.000000
vt 0.574270 0.194166
vt 0.840173 0.196067
vt 0.836305 0.345808
vt 0.571111 0.344582
vt 0.566913 0.441638
vt 0.557246 0.441610
vt 0.557246 0.441610
vt 0.566913 0.441638
vt 0.249452 0.440692
vt 0.017082 0.440000
vt 0.017082 0.440000
vt 0.249452 0.440692
vt 0.836305 0.345808
vt 0.697550 0.345167
vt 0.000000 0.000000
vt 0.000000 0.000000
vt 0.000000 0.000000
vt 0.000000 0.000000
vt 0.249965 0.343097
vt 0.307421 0.343363
vt 0.307421 0.343363
vt 0.249965 0.343097
vt 0.324510 0.440916
vt 0.306722 0.440863
vt 0.306722 0.440863
vt 0.324510 0.440916
vt 0.699770 0.442034
vt 0.576579 0.441667
vt 0.576579 0.441667
vt 0.699770 0.442034
vt 0.254596 0.191880
vt 0.313287 0.192300
vt 0.248165 0.685090
vt 0.304966 0.685072
vt 0.304108 0.804410
vt 0.247539 0.804032
vt 0.557246 0.441609
vt 0.316905 0.343407
vt 0.321634 0.343597
vt 0.558762 0.344525
vt 0.558762 0.344525
vt 0.321634 0.343597
vt 0.313287 0.192300
vt 0.307421 0.343363
vt 0.322609 0.685066
vt 0.321679 0.804528
vt 0.566913 0.441638
vt 0.558762 0.344525
vt 0.000000 0.000000
vt 0.000000 0.000000
vt 0.326441 0.192394
vt 0.561112 0.194072
vt 0.553441 0.684993
vt 0.551548 0.806067
vt 0.699770 0.442034
vt 0.576579 0.441667
vt 0.564937 0.344553
vt 0.306722 0.440863
vt 0.324510 0.440916
vt 0.322612 0.010745
vt 0.326441 0.192394
vt 0.322612 0.010745
vt 0.563028 0.684990
vt 0.594743 0.684983
vt 0.583890 0.806285
vt 0.561094 0.806131
vt 0.000000 0.000000
vt 0.000000 0.000000
vt 0.000000 0.000000
vt 0.000000 0.000000
vt 0.570318 0.013260
vt 0.558762 0.344525
vt 0.571111 0.344582
vt 0.251713 0.010025
vt 0.309807 0.010615
vt 0.583548 0.013394
vt 0.845356 0.016052
vt 0.697550 0.345167
vt 0.835857 0.345806
vt 0.833079 0.442431
vt 0.249965 0.343097
vt 0.307421 0.343363
vt 0.249452 0.440692
vt 0.316905 0.343407
vt 0.564937 0.344553
vt 0.571111 0.344582
vt 0.000000 0.000000
vt 0.000000 0.000000
vt 0.017082 0.440000
vt 0.063247 0.440137
vt 0.321634 0.343597
vt 0.561112 0.194072
vt 0.574270 0.194166
vt 0.570318 0.013260
vt 0.583548 0.013394
vt 0.309807 0.010615
vt 0.316905 0.343407
vt 0.000000 0.000000
vt 0.000000 0.000000
vt 0.000000 0.000000
vt 0.000000 0.000000
vt 0.304966 0.685072
vt 0.322609 0.685066
vt 0.698081 0.524585
vt 0.694757 0.686972
vt 0.698081 0.524585
vt 0.565593 0.524338
vt 0.575232 0.524356
vt 0.575232 0.524356
vt 0.565593 0.524338
vt 0.248165 0.685090
vt 0.830706 0.524832
vt 0.835982 0.442440
vt 0.306125 0.523854
vt 0.249015 0.523747
vt 0.323864 0.523887
vt 0.555953 0.524320
vt 0.064156 0.523403
vt 0.017291 0.523315
vt 0.303300 0.916917
vt 0.246945 0.916924
vt 0.246945 0.916924
vt 0.303300 0.916917
vt 0.016836 0.342019
vt 0.057766 0.342209
vt 0.062177 0.342229
vt 0.016836 0.342019
vt 0.000000 0.000000
vt 0.000000 0.000000
vt 0.000000 0.000000
vt 0.000000 0.000000
vt 0.068456 0.916942
vt 0.068456 0.916942
vt 0.000000 0.000000
vt 0.000000 0.000000
vt 0.000000 0.000000
vt 0.000000 0.000000
vt 0.016836 0.342019
vt 0.057766 0.342209
vt 0.573228 0.680120
vt 0.881576 0.442576
vt 0.881576 0.442576
vt 0.881576 0.442576
vt 0.597243 0.685028
vt 0.575342 0.685010
vt 0.323864 0.523887
vt 0.564884 0.525085
vt 0.306125 0.523854
vt 0.249015 0.523747
vt 0.884150 0.346029
vt 0.884150 0.346029
vt 0.836305 0.345808
vt 0.884150 0.346029
vt 0.060519 0.190493
vt 0.057766 0.342209
vt 0.060519 0.190493
vt 0.000000 0.000000
vt 0.000000 0.000000
vt 0.000000 0.000000
vt 0.884150 0.346029
vt 0.064156 0.523403
vt 0.017291 0.523315
vt 0.845356 0.016052
vt 0.840173 0.196067
vt 0.069250 0.989596
vt 0.246566 0.988799
vt 0.559326 0.916885
vt 0.573992 0.916919
vt 0.567690 0.987355
vt 0.558201 0.987397
vt 0.549815 0.916886
vt 0.548712 0.987440
vt 0.320804 0.916915
vt 0.320247 0.988467
vt 0.302785 0.988546
vt 0.690052 0.916868
vt 0.819417 0.916853
vt 0.817419 0.986232
vt 0.688620 0.986811
vt 0.018277 0.916953
vt 0.018460 0.989824
vt 0.000000 0.000000
vt 0.000000 0.000000
vt 0.065924 0.685149
vt 0.058526 0.008064
vt 0.067209 0.802824
vt 0.067209 0.802824
vt 0.065924 0.685149
vt 0.304108 0.804410
vt 0.247539 0.804032
vt 0.830706 0.524832
vt 0.826096 0.684905
vt 0.868933 0.916845
vt 0.819417 0.916853
vt 0.868933 0.916845
vt 0.000000 0.000000
vt 0.000000 0.000000
vt 0.000000 0.000000
vt 0.000000 0.000000
vt 0.000000 0.000000
vt 0.000000 0.000000
vt 0.559326 0.916885
vt 0.573992 0.916919
vt 0.867090 0.986009
vt 0.017696 0.685164
vt 0.015998 0.007632
vt 0.058526 0.008064
vt 0.016456 0.190178
vt 0.017990 0.802495
vt 0.016836 0.342019
vt 0.879381 0.524923
vt 0.875117 0.684890
vt 0.822555 0.807881
vt 0.871829 0.808211
vt 0.892933 0.016535
vt 0.888138 0.196410
vt 0.835982 0.442440
vt 0.881576 0.442576
vt 0.018277 0.916953
vt 0.583890 0.806285
vt 0.692300 0.807009
vt 0.690052 0.916868
vt 0.321679 0.804528
vt 0.320804 0.916915
vt 0.551548 0.806067
vt 0.549815 0.916886
vt 0.561094 0.806131
vt 0.000000 0.000000
vt 0.000000 0.000000
vt 0.000000 0.000000
vt 0.000000 0.000000
vt 0.000000 0.000000
vt 0.000000 0.000000
vt 0.000000 0.000000
vt 0.000000 0.000000
vt 0.000000 0.000000
vt 0.000000 0.000000
vt 0.000000 0.000000
vt 0.000000 0.000000
vn 0.0080 -0.0041 1.0000
vn 0.9996 0.0275 0.0000
vn -0.0037 0.0029 1.0000
vn -0.0029 1.0000 0.0000
vn -0.0045 1.0000 0.0000
vn -1.0000 0.0026 0.0000
vn 0.0045 -1.0000 0.0000
vn 0.0101 0.0002 0.9999
vn -0.0162 0.0047 0.9999
vn -0.9992 -0.0401 0.0000
vn 0.0331 0.0012 0.9995
vn 0.0038 -0.0032 1.0000
vn -0.0006 -0.0052 1.0000
vn 0.0045 -1.0000 -0.0004
vn 0.9998 -0.0218 0.0000
vn 0.0200 -0.0061 0.9998
vn 0.0098 -1.0000 0.0000
vn 0.0019 -0.0021 1.0000
vn 0.0239 -0.0007 0.9997
vn -0.0009 0.0015 1.0000
vn -0.0066 0.0012 1.0000
vn 0.0027 0.0007 1.0000
vn -0.0150 0.0149 0.9998
vn -0.0015 0.0271 0.9996
vn -0.1641 0.0025 0.9864
vn -0.0223 -0.0095 0.9997
vn -0.0885 0.0043 0.9961
vn -0.0306 0.0019 0.9995
vn 0.0382 0.0024 0.9993
vn -0.9986 -0.0526 0.0000
vn -0.9999 -0.0161 0.0000
vn 0.9986 0.0535 0.0000
vn 0.9998 0.0215 0.0000
vn 0.9986 0.0530 0.0000
vn -0.9998 0.0198 0.0000
vn 0.0003 1.0000 0.0000
vn 0.9997 0.0191 -0.0151
vn 0.0040 -1.0000 -0.0058
vn 0.0004 0.0023 1.0000
vn -0.0043 -0.0045 1.0000
vn -0.0092 -0.0064 0.9999
vn -0.0131 0.0011 0.9999
vn 0.0001 -0.0049 1.0000
vn 0.0750 -0.0130 0.9971
vn 0.0026 0.0045 1.0000
vn -0.0001 -1.0000 0.0000
vn -0.0157 0.0109 0.9998
vn -0.0098 1.0000 0.0000
vn -0.9996 -0.0275 0.0000
vn -0.0038 -0.0089 1.0000
vn -0.0028 0.9993 -0.0384
vn 0.0042 0.0024 1.0000
vn -0.0049 -0.0081 1.0000
vn -0.9813 0.0044 0.1925
vn -0.0037 -0.0004 1.0000
vn 0.0138 -0.0055 0.9999
vn 0.0197 -0.0074 0.9998
vn -0.0305 -0.2062 0.9780
vn 0.0018 -1.0000 0.0000
vn -0.1520 0.9799 0.1293
vn 0.0047 -0.9993 0.0369
vn 0.0140 0.9969 -0.0780
vn -1.0000 -0.0054 0.0000
vn 0.0019 -1.0000 -0.0008
vn 0.1795 0.9586 -0.2211
vn 0.9596 0.0059 -0.2812
vn -0.0442 -0.0267 0.9987
vn -0.0575 -0.9843 0.1667
vn 0.0959 0.0121 0.9953
vn -0.0619 -0.0046 0.9981
vn -0.0053 -0.0023 1.0000
vn -0.9998 -0.0188 0.0000
vn 1.0000 -0.0026 0.0000
vn -0.0018 1.0000 0.0000
vn 0.9996 0.0297 0.0000
vn -0.0012 0.0011 1.0000
vn 0.0018 -0.0090 1.0000
vn 0.0860 -0.0082 0.9963
vn -0.0013 -0.0008 1.0000
vn -0.0069 0.0109 0.9999
vn -0.0040 -0.0038 1.0000
vn 0.0001 -0.0050 1.0000
vn 0.0037 -0.0010 1.0000
vn 0.0036 0.0130 0.9999
vn 0.0082 0.0053 1.0000
vn 0.0074 -0.0068 0.9999
vn -0.0015 -0.0043 1.0000
vn -0.9999 0.0113 0.0000
vn 0.0048 0.0019 1.0000
vn -0.0009 0.0093 1.0000
vn -0.0065 1.0000 0.0000
vn 0.9996 0.0298 0.0000
vn -0.0002 -1.0000 0.0000
vn 0.0022 -1.0000 0.0000
vn -0.0005 0.0025 1.0000
vn -0.0080 0.0003 1.0000
vn -0.0062 0.0038 1.0000
vn 0.0060 -0.0012 1.0000
vn -0.0216 -0.0033 0.9998
vn -0.0068 -0.0054 1.0000
vn 0.0015 -0.0016 1.0000
vn 0.0011 0.0005 1.0000
vn 0.0080 0.0034 1.0000
vn -0.0023 0.0047 1.0000
vn 0.0179 0.0012 0.9998
vn 0.0013 -0.0030 1.0000
vn -0.0137 -0.0079 0.9999
vn 0.0112 -0.0000 0.9999
vn -0.0045 -0.0000 1.0000
vn -0.0039 0.0056 1.0000
vn 0.0371 0.0020 0.9993
vn -0.0025 0.0058 1.0000
vn 0.0941 -0.0031 0.9956
vn 0.0141 -0.0052 0.9999
vn 0.9996 0.0267 0.0000
vn -0.0004 -1.0000 0.0000
vn 0.9978 0.0660 0.0000
usemtl Garagewall
s off
f 94/1/1 119/2/1 130/3/1 137/4/1
f 8/5/2 6/6/2 10/7/2 9/8/2
f 40/9/3 118/10/3 126/11/3 33/12/3
f 110/13/4 28/14/4 48/15/4 112/16/4
f 78/17/4 5/18/4 11/19/4 80/20/4
f 33/12/5 126/11/5 125/21/5 91/22/5
f 5/23/6 7/24/6 12/25/6 11/26/6
f 79/27/7 16/28/7 18/29/7 81/30/7
f 21/31/4 15/32/4 17/33/4 23/34/4
f 90/35/4 34/36/4 49/37/4 92/38/4
f 83/39/8 37/40/8 16/28/8 79/27/8
f 86/41/9 67/42/9 134/43/9 129/44/9
f 26/45/4 21/31/4 23/34/4 28/14/4
f 16/28/7 22/46/7 18/29/7
f 22/47/7 29/48/7 50/49/7 51/50/7
f 16/28/10 37/40/10 55/51/10 54/52/10
f 67/42/11 68/53/11 133/54/11 134/43/11
f 109/55/4 26/45/4 28/14/4 110/13/4
f 22/47/5 27/56/5 29/48/5
f 11/26/6 12/25/6 45/57/6 44/58/6
f 38/59/12 39/60/12 27/56/12 22/47/12
f 68/53/13 69/61/13 132/62/13 133/54/13
f 89/63/4 32/64/4 34/36/4 90/35/4
f 27/56/14 33/12/14 111/65/14 29/48/14
f 23/34/4 17/33/4 43/66/4 47/67/4
f 19/68/15 38/59/15 58/69/15 57/70/15
f 114/71/16 70/72/16 135/73/16 136/74/16
f 24/75/17 30/76/17 63/77/17 62/78/17
f 19/68/18 24/79/18 39/60/18 38/59/18
f 33/12/5 27/56/5 60/80/5 59/81/5
f 82/82/19 13/83/19 37/40/19 83/39/19
f 30/84/20 120/85/20 118/10/20 40/9/20
f 93/86/21 121/87/21 122/88/21 92/38/21
f 85/89/22 46/90/22 43/66/22 84/91/22
f 46/90/23 51/92/23 47/67/23 43/66/23
f 51/92/24 50/49/24 48/15/24 47/67/24
f 113/93/25 52/94/25 49/37/25 112/16/25
f 81/30/7 18/29/7 46/90/7 85/89/7
f 18/29/7 22/46/7 51/92/7 46/90/7
f 9/8/2 10/7/2 42/95/2 41/96/2
f 111/65/7 33/12/7 52/94/7 113/93/7
f 80/20/4 11/19/4 44/97/4 140/98/4 84/91/4
f 91/22/7 125/21/7 121/87/7 93/86/7
f 28/14/4 23/34/4 47/67/4 48/15/4
f 55/51/26 58/69/26 53/99/26 54/52/26
f 61/100/27 64/101/27 59/81/27 60/80/27
f 62/102/28 63/103/28 64/101/28 61/100/28
f 56/104/29 57/70/29 58/69/29 55/51/29
f 39/60/30 24/79/30 62/102/30 61/100/30
f 27/56/31 39/60/31 61/100/31 60/80/31
f 38/59/32 22/47/32 53/99/32 58/69/32
f 40/9/33 33/12/33 59/81/33 64/101/33
f 22/46/5 16/28/5 54/52/5 53/105/5
f 30/84/34 40/9/34 64/101/34 63/103/34
f 13/106/17 19/107/17 57/108/17 56/109/17
f 37/40/35 13/83/35 56/104/35 55/51/35
f 68/53/36 67/42/36 97/110/36 99/111/36
f 95/112/37 94/1/37 104/113/37 105/114/37
f 115/115/38 76/116/38 102/117/38 117/118/38
f 67/42/36 86/41/36 106/119/36 97/110/36
f 95/112/39 123/120/39 119/2/39 94/1/39
f 89/63/40 127/121/40 123/120/40 95/112/40
f 78/17/41 15/32/41 73/122/41 87/123/41
f 15/32/42 21/31/42 74/124/42 73/122/42
f 21/31/43 26/45/43 75/125/43 74/124/43
f 109/55/44 32/64/44 76/116/44 115/115/44
f 5/18/45 78/17/45 87/123/45 139/126/45 71/127/45
f 149/128/46 153/129/46 198/130/46 194/131/46
f 17/33/4 80/20/4 84/91/4 43/66/4
f 12/132/7 146/133/7 143/134/7 45/135/7
f 45/135/47 143/134/47 140/98/47 44/97/47
f 1/136/48 141/137/48 192/138/48 160/139/48
f 153/129/46 158/140/46 202/141/46 198/130/46
f 2/142/49 36/143/49 163/144/49 162/145/49
f 7/146/5 147/147/5 146/133/5 12/132/5
f 15/32/4 78/17/4 80/20/4 17/33/4
f 32/64/50 89/63/50 95/112/50 76/116/50
f 69/61/51 68/53/51 99/111/51 101/148/51
f 33/12/7 91/22/7 93/86/7 52/94/7
f 52/94/52 93/86/52 92/38/52 49/37/52
f 6/149/4 127/121/4 89/63/4 90/35/4 10/150/4
f 10/150/4 90/35/4 92/38/4 122/88/4 42/151/4
f 70/72/53 94/1/53 137/4/53 135/73/53
f 117/118/54 102/117/54 103/152/54 116/153/54
f 98/154/55 100/155/55 101/148/55 99/111/55
f 96/156/56 98/154/56 99/111/56 97/110/56
f 107/157/57 96/156/57 97/110/57 106/119/57
f 102/117/58 105/114/58 104/113/58 103/152/58
f 87/123/59 73/122/59 96/156/59 107/157/59
f 73/122/59 74/124/59 98/154/59 96/156/59
f 114/71/60 69/61/60 101/148/60 116/153/60
f 74/124/61 75/125/61 100/155/61 98/154/61
f 94/1/62 70/72/62 103/152/62 104/113/62
f 86/41/63 87/123/63 107/157/63 106/119/63
f 76/116/64 95/112/64 105/114/64 102/117/64
f 70/72/65 114/71/65 116/153/65 103/152/65
f 100/155/66 117/118/66 116/153/66 101/148/66
f 26/45/67 109/55/67 115/115/67 75/125/67
f 75/125/68 115/115/68 117/118/68 100/155/68
f 29/48/7 111/65/7 113/93/7 50/49/7
f 50/49/69 113/93/69 112/16/69 48/15/69
f 69/61/70 114/71/70 136/74/70 132/62/70
f 32/64/4 109/55/4 110/13/4 34/36/4
f 34/36/4 110/13/4 112/16/4 49/37/4
f 122/88/71 121/87/71 41/158/71 42/151/71
f 8/159/7 126/11/7 179/160/7 164/161/7
f 138/162/72 147/147/72 165/163/72 167/164/72
f 7/24/73 35/165/73 159/166/73 166/167/73
f 125/21/5 126/11/5 8/159/5 9/168/5
f 71/127/74 139/126/74 175/169/74 173/170/74
f 121/87/7 125/21/7 9/168/7 41/158/7
f 118/10/75 120/85/75 161/171/75 176/172/75
f 142/173/76 158/140/76 153/129/76 77/174/76
f 155/175/77 152/176/77 31/177/77 108/178/77
f 151/179/78 155/175/78 108/178/78 25/180/78
f 150/181/79 151/179/79 25/180/79 20/182/79
f 149/128/80 150/181/80 20/182/80 14/183/80
f 154/184/81 156/185/81 124/186/81 88/187/81
f 152/176/82 154/184/82 88/187/82 31/177/82
f 157/188/83 158/140/83 142/173/83 3/189/83
f 153/129/84 149/128/84 14/183/84 77/174/84
f 120/190/48 2/142/48 162/145/48 161/191/48
f 140/98/85 143/134/85 85/89/85 84/91/85
f 145/192/86 139/126/86 87/123/86 86/41/86
f 138/162/87 141/193/87 82/82/87 83/39/87
f 145/192/88 144/194/88 190/195/88 172/196/88
f 144/194/89 145/192/89 86/41/89 129/44/89
f 147/147/90 138/162/90 83/39/90 79/27/90
f 146/133/7 147/147/7 79/27/7 81/30/7
f 143/134/7 146/133/7 81/30/7 85/89/7
f 129/44/91 134/43/91 188/197/91 191/198/91
f 119/2/92 123/120/92 178/199/92 177/200/92
f 148/201/93 156/185/93 201/202/93 193/203/93
f 35/165/73 1/136/73 160/139/73 159/166/73
f 157/204/73 131/205/73 170/206/73 183/207/73
f 131/205/73 66/208/73 171/209/73 170/206/73
f 144/194/91 129/44/91 191/198/91 190/195/91
f 152/176/94 155/175/94 200/210/94 197/211/94
f 124/186/95 156/185/95 148/201/95 4/212/95
f 173/170/96 175/169/96 172/196/96 171/213/96
f 160/214/97 192/215/97 167/164/97 159/216/97
f 171/213/98 172/196/98 190/195/98 170/217/98
f 159/216/99 167/164/99 165/163/99 166/218/99
f 177/200/100 178/199/100 168/219/100 169/220/100
f 201/202/101 182/221/101 181/222/101 193/203/101
f 176/172/102 161/171/102 162/223/102 163/224/102
f 179/160/103 176/172/103 163/224/103 164/161/103
f 178/199/104 180/225/104 174/226/104 168/219/104
f 181/222/105 182/221/105 177/200/105 169/220/105
f 202/141/106 190/195/106 191/198/106 198/130/106
f 191/198/107 188/197/107 194/131/107 198/130/107
f 170/217/108 190/195/108 202/141/108 183/227/108
f 185/228/109 189/229/109 199/230/109 197/211/109
f 189/229/110 182/221/110 201/202/110 199/230/110
f 188/197/111 187/231/111 195/232/111 194/131/111
f 187/231/112 186/233/112 196/234/112 195/232/112
f 186/233/113 184/235/113 200/210/113 196/234/113
f 184/235/114 185/228/114 197/211/114 200/210/114
f 126/11/115 118/10/115 176/172/115 179/160/115
f 158/140/93 157/188/93 183/227/93 202/141/93
f 136/74/91 135/73/91 185/228/91 184/235/91
f 128/236/49 148/237/49 193/238/49 181/239/49
f 154/184/116 152/176/116 197/211/116 199/230/116
f 132/62/91 136/74/91 184/235/91 186/233/91
f 36/143/49 8/5/49 164/240/49 163/144/49
f 127/121/4 6/149/4 174/226/4 180/225/4
f 156/185/46 154/184/46 199/230/46 201/202/46
f 133/54/91 132/62/91 186/233/91 187/231/91
f 147/147/7 7/146/7 166/218/7 165/163/7
f 123/120/117 127/121/117 180/225/117 178/199/117
f 66/208/73 71/241/73 173/242/73 171/209/73
f 150/181/46 149/128/46 194/131/46 195/232/46
f 134/43/91 133/54/91 187/231/91 188/197/91
f 65/243/49 128/236/49 181/239/49 169/244/49
f 6/6/49 72/245/49 168/246/49 174/247/49
f 151/179/46 150/181/46 195/232/46 196/234/46
f 137/4/91 130/3/91 182/221/91 189/229/91
f 139/126/88 145/192/88 172/196/88 175/169/88
f 155/175/46 151/179/46 196/234/46 200/210/46
f 72/245/49 65/243/49 169/244/49 168/246/49
f 135/73/91 137/4/91 189/229/91 185/228/91
f 130/3/92 119/2/92 177/200/92 182/221/92
f 141/193/88 138/162/88 167/164/88 192/215/88
