# Blender v2.90.1 OBJ File: 'FukushimaBuildings.blend'
# www.blender.org
mtllib SmallShop.mtl
o SmallShop_SmallShop.001
v -12.422585 4.095015 -0.223935
v -11.903494 8.127863 -0.227602
v -12.213179 4.277859 -0.234695
v -11.865954 4.259584 -0.212650
v -19.341927 3.546836 -0.023649
v -12.085642 4.104689 -0.226884
v -19.416664 3.420537 0.002106
v -11.731928 3.421131 0.032192
v -19.423321 3.116273 -0.016332
v -11.670434 3.100813 0.026281
v -12.085303 4.115877 -0.354516
v -11.864908 4.251353 -0.336125
v -12.257856 8.137024 -0.235313
v -19.339769 3.538770 -0.139955
v -11.734268 3.425354 0.746656
v -12.086018 4.104222 0.135787
v -19.339857 3.532606 0.099294
v -19.425081 3.441162 0.716045
v -11.677632 3.090352 0.758971
v -19.430693 3.124857 0.704451
v -12.021421 3.118510 0.004207
v -11.661387 0.156017 0.009023
v -19.126961 8.110046 -0.237702
v -19.131369 4.138504 -0.246506
v -19.139582 4.050155 -0.001832
v -19.125093 3.092373 0.002288
v -19.131048 4.141553 -0.372783
v -19.139482 4.050183 -0.356094
v -19.140831 4.068884 0.097628
v -19.135145 3.436095 0.722870
v -19.137650 3.118145 0.713149
v -19.123680 0.161398 0.008659
v -12.211989 4.253629 -0.339837
v -12.422119 4.083005 -0.338964
v -12.423676 4.085107 0.138248
v -12.080528 3.444873 0.738488
v -12.031797 3.095561 0.750233
v -11.893296 0.140098 0.027214
v -13.652637 8.127805 -0.237281
v -13.627579 4.250518 -0.233427
v -13.796021 4.088702 0.024045
v -13.477155 3.104514 0.022453
v -13.626770 4.238104 -0.341897
v -13.795337 4.099763 -0.358526
v -13.796048 4.093479 0.118074
v -13.521305 3.437772 0.736542
v -13.478071 3.106448 0.742990
v -13.379269 0.146966 0.028617
v -14.621136 8.128657 -0.233671
v -14.597431 4.229283 -0.230038
v -14.738441 4.078029 0.012083
v -14.476030 3.099771 0.011468
v -14.596746 4.223247 -0.356572
v -14.737312 4.079532 -0.347227
v -14.739396 4.079021 0.128696
v -14.516622 3.426781 0.737313
v -14.474318 3.104678 0.744766
v -14.369231 0.163186 0.006292
v -17.068966 8.124521 -0.242423
v -17.072815 4.180466 -0.226191
v -17.141560 4.078259 -0.007147
v -17.019213 3.107196 -0.001617
v -17.072168 4.183146 -0.365064
v -17.140604 4.068144 -0.363876
v -17.142395 4.078784 0.118907
v -17.031914 3.424486 0.735259
v -17.014374 3.100854 0.737847
v -16.965067 0.162349 0.005050
v -18.336800 8.113270 -0.241323
v -18.334284 4.163788 -0.250702
v -18.366770 4.083742 -0.010915
v -18.310389 3.103372 -0.005257
v -18.333986 4.150495 -0.366056
v -18.365669 4.079757 -0.378299
v -18.365917 4.060391 0.122374
v -18.328764 3.445807 0.718935
v -18.315823 3.108971 0.722883
v -18.298119 0.168123 0.001516
v -18.314444 3.111414 0.103845
v -19.131594 3.110495 0.112407
v -18.300196 0.169321 0.112462
v -19.134182 0.169890 0.112307
v -11.871541 0.161542 0.313727
v -12.022418 3.115821 0.311926
v -13.481162 3.099292 0.334895
v -13.364541 0.156527 0.322835
v -16.916492 8.126013 -0.243869
v -16.924301 4.194975 -0.233600
v -16.997486 4.080509 -0.002651
v -16.869175 3.109036 -0.005128
v -16.923271 4.189167 -0.364363
v -16.996546 4.076701 -0.355200
v -16.996723 4.070954 0.114434
v -16.882732 3.426948 0.739202
v -16.864836 3.103376 0.731797
v -16.836500 0.169115 0.005842
v -14.760226 8.129632 -0.236722
v -14.732528 4.210686 -0.209200
v -14.869637 4.080543 0.026885
v -14.618247 3.096460 0.025411
v -14.731215 4.213034 -0.352286
v -14.868455 4.085485 -0.360026
v -14.870337 4.081189 0.130281
v -14.647691 3.432242 0.741586
v -14.612000 3.105277 0.739108
v -14.537164 0.154698 0.016665
v -11.666616 0.393136 0.018698
v -19.150755 0.424985 -0.001958
v -11.894725 0.392234 0.017974
v -13.372578 0.398373 0.015814
v -14.391504 0.399217 0.017172
v -16.979593 0.406192 0.005596
v -18.295895 0.406307 0.003047
v -19.144005 0.418802 0.111750
v -18.314779 0.418473 0.116710
v -11.884342 0.403291 0.315186
v -13.383989 0.392246 0.331848
v -16.828833 0.407112 0.001323
v -14.538895 0.397671 0.014957
v -14.609842 3.105331 -0.154786
v -16.865622 3.106256 -0.167698
v -16.834435 0.408555 -0.163974
v -14.531395 0.399936 -0.157757
v -16.991041 0.409651 -0.633401
v -17.012398 3.101014 -0.636528
v -18.312061 3.117267 -0.644129
v -16.980579 0.166681 -0.638080
v -18.300806 0.170311 -0.644488
v -18.307968 0.415114 -0.638542
v -11.658791 0.807377 0.010479
v -19.127708 0.805465 -0.000385
v -11.906309 0.805411 0.013017
v -13.393459 0.797813 0.020899
v -14.412931 0.798140 0.021812
v -16.978119 0.805377 0.003152
v -18.304256 0.811863 0.006002
v -19.145563 0.822593 0.107893
v -18.321314 0.824125 0.106914
v -11.902668 0.809739 0.312851
v -13.403346 0.792353 0.328193
v -16.848644 0.813027 0.006005
v -14.558177 0.797355 0.019844
v -16.840061 0.810441 -0.172057
v -14.557470 0.796918 -0.155759
v -16.975828 0.804609 -0.630010
v -18.297142 0.807071 -0.636396
v -16.977791 0.805286 -0.873015
v -17.011353 3.099842 -0.866223
v -18.308308 3.106948 -0.873011
v -18.310783 0.818551 -0.871597
v -13.865664 8.127048 -0.236093
v -13.843022 4.225649 -0.211509
v -14.005656 4.085748 0.023269
v -13.505419 3.104906 -0.424220
v -13.843264 4.245874 -0.351729
v -14.004858 4.089942 -0.360022
v -14.005729 4.090551 0.122084
v -13.754246 3.417310 0.745781
v -13.696216 3.110226 0.738286
v -13.405399 0.150666 -0.420142
v -13.414758 0.391626 -0.417960
v -13.412721 0.807766 -0.431168
v -13.522863 3.082729 -0.707704
v -14.536480 3.094989 -0.716516
v -13.380337 0.150501 -0.723754
v -14.426922 0.151034 -0.722229
v -14.445255 0.798300 -0.728655
v -14.432568 0.394068 -0.722770
v -13.399386 0.386090 -0.718165
v -13.404305 0.801214 -0.723455
v -16.993816 0.170529 -0.104798
v -18.304920 0.172412 -0.111847
v -16.995497 0.411044 -0.110248
v -18.298515 0.408084 -0.104777
v -16.997158 0.811897 -0.106029
v -18.313433 0.818830 -0.111488
v -16.986525 0.808259 -0.335059
v -17.020544 3.111075 -0.346502
v -18.307171 3.097131 -0.338008
v -18.302055 0.810618 -0.338968
v -11.908785 3.785947 -0.050955
v -19.379295 3.506724 0.035620
v -11.910143 3.787826 0.487612
v -19.382469 3.509921 0.454060
v -19.137989 3.775527 0.456640
v -12.252102 3.788027 0.484759
v -13.658676 3.788662 0.473699
v -14.628009 3.775939 0.479396
v -17.087154 3.774672 0.473474
v -18.347340 3.776136 0.467046
v -16.939728 3.771988 0.473209
v -14.759014 3.779752 0.482324
v -13.879988 3.776968 0.480323
vt 0.859360 0.528564
vt 0.896994 0.529414
vt 0.890559 0.980092
vt 0.853222 0.979841
vt 0.859403 0.526213
vt 0.897038 0.527024
vt 0.000000 0.000000
vt 0.000000 0.000000
vt 0.000000 0.000000
vt 0.000000 0.000000
vt 0.000000 0.000000
vt 0.000000 0.000000
vt 0.000000 0.000000
vt 0.000000 0.000000
vt 0.893211 0.122389
vt 0.919907 0.122436
vt 0.918860 0.392050
vt 0.880223 0.391882
vt 0.836717 0.508660
vt 0.873259 0.509035
vt 0.836724 0.507618
vt 0.873267 0.507944
vt 0.836725 0.507554
vt 0.873267 0.507894
vt 0.000000 0.000000
vt 0.000000 0.000000
vt 0.000000 0.000000
vt 0.855275 0.468873
vt 0.892711 0.469140
vt 0.880222 0.392257
vt 0.918859 0.392428
vt 0.912154 0.430386
vt 0.873825 0.430193
vt 0.000000 0.000000
vt 0.000000 0.000000
vt 0.000000 0.000000
vt 0.000000 0.000000
vt 0.000000 0.000000
vt 0.000000 0.000000
vt 0.107710 0.501124
vt 0.085886 0.500929
vt 0.086085 0.484394
vt 0.107713 0.500773
vt 0.191713 0.501872
vt 0.191716 0.501554
vt 0.077870 0.388392
vt 0.109426 0.388529
vt 0.109424 0.388844
vt 0.077869 0.388705
vt 0.109174 0.426340
vt 0.077870 0.426182
vt 0.081978 0.455288
vt 0.108443 0.463556
vt 0.107709 0.501165
vt 0.085886 0.500941
vt 0.722641 0.391196
vt 0.722640 0.391559
vt 0.702592 0.467786
vt 0.687685 0.506167
vt 0.195091 0.513564
vt 0.108580 0.511611
vt 0.108607 0.510032
vt 0.195120 0.511897
vt 0.717499 0.429405
vt 0.687684 0.506290
vt 0.687678 0.507128
vt 0.705910 0.522905
vt 0.722641 0.391196
vt 0.880223 0.391882
vt 0.705870 0.525098
vt 0.700942 0.978817
vt 0.682455 0.524569
vt 0.677712 0.978661
vt 0.708539 0.122134
vt 0.732982 0.122168
vt 0.698601 0.391092
vt 0.664942 0.506894
vt 0.682495 0.522400
vt 0.664948 0.506088
vt 0.698600 0.391453
vt 0.693652 0.429285
vt 0.679300 0.467620
vt 0.664949 0.505956
vt 0.599511 0.390661
vt 0.614580 0.390727
vt 0.614579 0.391081
vt 0.599510 0.391014
vt 0.583291 0.466937
vt 0.597892 0.467041
vt 0.585483 0.505217
vt 0.571231 0.505084
vt 0.610300 0.428865
vt 0.595352 0.428790
vt 0.571229 0.505253
vt 0.585481 0.505380
vt 0.585476 0.506077
vt 0.571224 0.505930
vt 0.600654 0.520636
vt 0.585976 0.520320
vt 0.607784 0.121994
vt 0.623106 0.122016
vt 0.585938 0.522390
vt 0.600616 0.522721
vt 0.596518 0.978114
vt 0.581956 0.978017
vt 0.331983 0.516655
vt 0.330004 0.976322
vt 0.194191 0.975409
vt 0.338786 0.389527
vt 0.198243 0.388916
vt 0.198243 0.388916
vt 0.338786 0.389527
vt 0.191712 0.502029
vt 0.324634 0.503395
vt 0.332015 0.514847
vt 0.324637 0.503056
vt 0.198242 0.389237
vt 0.338785 0.389860
vt 0.336705 0.427486
vt 0.197283 0.426784
vt 0.194500 0.464169
vt 0.330672 0.465138
vt 0.324639 0.502791
vt 0.348110 0.517020
vt 0.348142 0.515194
vt 0.340295 0.503196
vt 0.340298 0.502936
vt 0.199775 0.121430
vt 0.198243 0.388916
vt 0.199775 0.121430
vt 0.108362 0.974832
vt 0.109465 0.121305
vt 0.109426 0.388529
vt 0.000000 0.000000
vt 0.000000 0.000000
vt 0.000000 0.000000
vt 0.000000 0.000000
vt 0.000000 0.000000
vt 0.000000 0.000000
vt 0.732982 0.122168
vt 0.893211 0.122389
vt 0.734792 0.075081
vt 0.735877 0.046858
vt 0.735877 0.046858
vt 0.734792 0.075081
vt 0.000000 0.000000
vt 0.000000 0.000000
vt 0.000000 0.000000
vt 0.000000 0.000000
vt 0.346003 0.976430
vt 0.342678 0.121628
vt 0.359512 0.121651
vt 0.355342 0.389599
vt 0.340293 0.503556
vt 0.355341 0.389933
vt 0.353129 0.427569
vt 0.346714 0.465253
vt 0.599511 0.390661
vt 0.607784 0.121994
vt 0.360680 0.046644
vt 0.610099 0.046786
vt 0.609232 0.074971
vt 0.360242 0.074754
vt 0.343768 0.046635
vt 0.343359 0.074739
vt 0.896847 0.046950
vt 0.895484 0.075221
vt 0.895485 0.075221
vt 0.896847 0.046950
vt 0.000000 0.000000
vt 0.000000 0.000000
vt 0.109476 0.046501
vt 0.200203 0.046553
vt 0.200043 0.074614
vt 0.109472 0.074535
vt 0.200203 0.046553
vt 0.200043 0.074614
vt 0.342678 0.121628
vt 0.625492 0.046795
vt 0.624598 0.074985
vt 0.711320 0.046844
vt 0.710278 0.075059
vt 0.920200 0.046963
vt 0.920090 0.075247
vt 0.359512 0.121651
vt 0.355342 0.389599
vt 0.360242 0.074754
vt 0.609232 0.074971
vt 0.199775 0.121430
vt 0.199775 0.121430
vt 0.198243 0.388916
vt 0.200043 0.074614
vt 0.200043 0.074614
vt 0.199775 0.121430
vt 0.343359 0.074739
vt 0.343768 0.046635
vt 0.200203 0.046553
vt 0.000000 0.000000
vt 0.000000 0.000000
vt 0.000000 0.000000
vt 0.343359 0.074739
vt 0.343768 0.046635
vt 0.000000 0.000000
vt 0.000000 0.000000
vt 0.342678 0.121628
vt 0.338786 0.389527
vt 0.199775 0.121430
vt 0.198243 0.388916
vt 0.342678 0.121628
vt 0.708539 0.122134
vt 0.710278 0.075059
vt 0.623106 0.122016
vt 0.614580 0.390727
vt 0.624598 0.074985
vt 0.625492 0.046795
vt 0.711320 0.046844
vt 0.698601 0.391092
vt 0.000000 0.000000
vt 0.000000 0.000000
vt 0.000000 0.000000
vt 0.000000 0.000000
vt 0.200203 0.046553
vt 0.342678 0.121628
vt 0.338786 0.389527
vt 0.000000 0.000000
vt 0.000000 0.000000
vt 0.000000 0.000000
vt 0.000000 0.000000
vn -0.0423 0.0016 0.9991
vn -0.0345 -0.9895 0.1402
vn 0.8739 0.4861 0.0009
vn -0.8992 0.4371 -0.0184
vn -0.0327 -0.0024 0.9995
vn 0.0211 -0.0867 0.9960
vn -0.0631 0.9980 -0.0036
vn -0.0425 0.9990 0.0142
vn -0.5511 0.8344 0.0068
vn -0.0211 0.7459 0.6658
vn -0.0230 0.0316 0.9992
vn -0.0315 -0.9992 -0.0229
vn -0.9997 0.0203 -0.0114
vn 0.9841 0.1775 0.0073
vn -0.9329 0.3602 -0.0038
vn -0.0164 0.9997 0.0198
vn -0.0528 -0.9983 0.0232
vn -0.0273 -0.0332 0.9991
vn -0.8634 0.4774 0.1633
vn -0.9302 0.3670 -0.0107
vn 0.0010 -0.9999 -0.0143
vn -0.0049 0.7582 0.6521
vn 0.0214 -0.9989 0.0424
vn -0.0031 0.0263 0.9996
vn 0.0036 1.0000 -0.0019
vn -0.0078 -0.0414 0.9991
vn -0.0103 0.9999 0.0127
vn -0.0003 0.0006 1.0000
vn 0.0536 0.0040 0.9986
vn -0.9979 -0.0383 0.0523
vn -0.0263 -0.0550 0.9981
vn -0.0306 0.9993 0.0198
vn 0.0101 -0.0000 0.9999
vn 0.0149 -0.9855 0.1692
vn -0.0094 0.7541 0.6567
vn -0.0202 -0.9998 0.0018
vn 0.0017 0.9999 0.0112
vn 0.0100 -0.9999 0.0094
vn 0.0285 0.7622 0.6467
vn -0.0050 0.0071 1.0000
vn 0.0323 0.9994 0.0087
vn -0.0326 0.0393 0.9987
vn 0.0416 0.0022 0.9991
vn 0.0645 0.0044 0.9979
vn 0.0134 -0.9985 -0.0531
vn -0.0130 0.9996 -0.0270
vn -0.0093 0.0009 1.0000
vn -0.0048 -1.0000 -0.0061
vn -0.0057 -0.0563 0.9984
vn 0.0071 0.9998 -0.0194
vn -0.0119 0.0093 0.9999
vn -0.0060 0.7648 0.6442
vn -0.0017 -1.0000 -0.0005
vn 0.0691 -0.9975 0.0120
vn 0.0192 0.9991 0.0371
vn 0.0011 -0.9998 0.0218
vn -0.0104 0.7728 0.6346
vn -0.0036 -0.0089 1.0000
vn -0.0409 0.9991 -0.0055
vn 0.0092 0.0251 0.9996
vn 0.9950 0.0002 0.1000
vn 0.0050 -0.0023 1.0000
vn 0.0191 -0.9989 0.0418
vn -0.0053 0.9961 0.0877
vn 0.0058 -0.0003 1.0000
vn 0.0039 -0.9990 0.0453
vn -0.9973 -0.0722 -0.0164
vn -0.0084 0.9929 -0.1189
vn 0.0130 -0.0007 0.9999
vn -0.9996 -0.0261 0.0056
vn 0.9987 0.0508 -0.0045
vn -0.0004 -0.9986 0.0533
vn -0.0028 0.9992 0.0404
vn 0.0089 -0.9999 0.0127
vn 0.0292 0.0033 0.9996
vn 0.0022 0.0035 1.0000
vn -0.0353 0.0673 0.9971
vn -0.0366 0.9991 -0.0197
vn 0.0072 -0.0071 0.9999
vn 0.0379 0.7660 0.6417
vn 0.0143 -0.9999 -0.0082
vn 0.1076 -0.9941 0.0144
vn 0.0174 0.9998 -0.0073
vn -0.0073 0.0048 1.0000
vn -0.9994 -0.0244 -0.0262
vn -0.0017 0.0074 1.0000
vn -0.0021 1.0000 0.0015
vn -0.0021 -0.0154 0.9999
vn -0.0069 0.7631 0.6462
vn -0.0024 -1.0000 0.0022
vn -0.0053 0.0130 0.9999
vn 0.0122 0.0084 0.9999
vn 0.9980 0.0279 -0.0565
vn -0.9981 -0.0502 -0.0350
vn 0.0087 -0.0213 0.9997
vn -0.9983 0.0272 -0.0513
vn -0.0031 -0.0076 1.0000
vn 0.9955 0.0242 0.0915
vn -0.9998 -0.0169 -0.0071
vn 0.0264 -0.0178 0.9995
vn -0.9970 -0.0037 0.0772
vn 0.0380 -0.0004 0.9993
vn -0.0064 -0.0013 1.0000
vn 0.9995 0.0315 0.0086
vn 0.0039 0.9999 0.0110
vn -0.0028 -0.9998 -0.0179
vn 0.9998 0.0027 -0.0213
vn -1.0000 -0.0051 -0.0064
vn -0.9985 -0.0515 0.0207
vn 1.0000 -0.0031 -0.0039
vn 0.9999 0.0104 -0.0114
vn 0.0035 1.0000 0.0050
vn 1.0000 0.0046 0.0043
vn 0.9995 0.0251 0.0166
vn 0.9993 0.0101 0.0354
vn -0.0049 0.0074 1.0000
vn -0.9998 0.0210 0.0072
vn -0.9938 0.0038 -0.1114
vn -0.9991 -0.0349 -0.0230
vn -0.9981 -0.0566 -0.0238
vn 0.0052 -0.0027 1.0000
vn 0.9990 0.0362 -0.0244
vn 0.0106 0.0079 0.9999
vn -0.0024 0.0168 0.9999
vn 0.9864 0.0195 0.1630
vn -0.0142 -0.0127 0.9998
vn -0.9974 -0.0224 0.0691
vn 0.0037 0.0159 0.9999
vn 0.9995 -0.0173 0.0248
vn -0.0091 -0.9996 0.0250
vn -1.0000 -0.0006 0.0092
vn -0.9999 -0.0153 0.0020
vn -0.9992 -0.0044 -0.0400
vn 0.9975 0.0335 -0.0627
vn -0.0144 0.9987 -0.0496
vn 0.0387 -0.9988 -0.0313
vn 0.0077 -1.0000 0.0062
vn -0.0039 0.7539 0.6570
vn -0.0013 -0.0003 1.0000
vn -0.0124 0.9999 0.0076
vn 0.0054 -0.0019 1.0000
vn 0.9979 0.0423 -0.0493
vn -0.0107 0.0036 0.9999
vn -0.0047 0.0135 0.9999
vn -0.0015 -0.0106 0.9999
vn -0.0068 -0.0064 1.0000
vn -0.9988 -0.0462 0.0180
vn 0.0039 0.9999 -0.0121
vn 0.9959 0.0595 -0.0677
vn 0.0021 -0.9996 0.0265
vn -0.9961 -0.0583 -0.0662
vn -0.0006 -0.0034 1.0000
vn 0.0000 0.0031 1.0000
vn 0.0018 0.0023 1.0000
vn 0.0036 0.9997 -0.0258
vn 0.9998 0.0147 0.0167
vn 0.3227 0.9465 -0.0000
vn -0.6636 -0.7481 -0.0020
vn -1.0000 -0.0017 0.0050
vn -0.0026 1.0000 -0.0014
vn -0.0021 -1.0000 0.0055
vn -0.0017 0.5936 0.8047
vn -0.0039 0.6037 0.7972
vn -0.0094 0.6037 0.7972
vn -0.0072 0.6117 0.7910
vn -0.0017 0.6023 0.7982
vn 0.0432 0.6044 0.7955
vn -0.0139 0.5933 0.8049
vn -0.0050 0.5956 0.8033
vn -0.3740 0.7473 0.5493
vn 0.0039 0.5891 0.8080
vn -0.5661 0.8242 0.0156
vn 0.8997 0.4366 0.0005
usemtl SmallShop
s off
f 3/1/1 4/2/1 2/3/1 13/4/1
f 4/2/2 3/1/2 33/5/2 12/6/2
f 181/7/3 6/8/3 16/9/3 183/10/3
f 182/11/4 7/12/4 18/13/4 184/14/4
f 132/15/5 130/16/5 10/17/5 21/18/5
f 34/19/6 11/20/6 12/6/6 33/5/6
f 1/21/7 6/22/7 11/20/7 34/19/7
f 6/22/8 1/21/8 35/23/8 16/24/8
f 6/8/9 4/25/9 12/26/9 11/27/9
f 186/28/10 183/29/10 16/24/10 35/23/10
f 37/30/11 19/31/11 15/32/11 36/33/11
f 21/18/12 10/17/12 19/31/12 37/30/12
f 7/12/13 9/34/13 20/35/13 18/13/13
f 10/36/14 8/37/14 15/38/14 19/39/14
f 25/40/15 5/41/15 17/42/15 29/43/15
f 71/44/16 25/40/16 29/43/16 75/45/16
f 9/46/17 26/47/17 31/48/17 20/49/17
f 20/49/18 31/48/18 30/50/18 18/51/18
f 184/52/19 185/53/19 29/43/19 17/42/19
f 5/41/20 25/40/20 28/54/20 14/55/20
f 42/56/21 21/18/21 37/30/21 47/57/21
f 187/58/22 186/28/22 35/23/22 45/59/22
f 70/60/23 24/61/23 27/62/23 73/63/23
f 47/57/24 37/30/24 36/33/24 46/64/24
f 41/65/25 1/21/25 34/19/25 44/66/25
f 44/66/26 34/19/26 33/5/26 43/67/26
f 21/18/27 42/56/27 85/68/27 84/69/27
f 40/70/28 3/1/28 13/4/28 39/71/28
f 152/72/29 40/70/29 39/71/29 151/73/29
f 162/74/30 133/75/30 42/56/30 154/76/30
f 156/77/31 44/66/31 43/67/31 155/78/31
f 153/79/32 41/65/32 44/66/32 156/77/32
f 159/80/33 47/57/33 46/64/33 158/81/33
f 3/1/34 40/70/34 43/67/34 33/5/34
f 193/82/35 187/58/35 45/59/35 157/83/35
f 154/76/36 42/56/36 47/57/36 159/80/36
f 1/21/37 41/65/37 45/59/37 35/23/37
f 100/84/38 52/85/38 57/86/38 105/87/38
f 192/88/39 188/89/39 55/90/39 103/91/39
f 105/87/40 57/86/40 56/92/40 104/93/40
f 99/94/41 51/95/41 54/96/41 102/97/41
f 102/97/42 54/96/42 53/98/42 101/99/42
f 142/100/43 134/101/43 52/85/43 100/84/43
f 98/102/44 50/103/44 49/104/44 97/105/44
f 152/72/45 50/103/45 53/98/45 155/78/45
f 153/79/46 51/95/46 55/90/46 157/83/46
f 70/60/47 60/106/47 59/107/47 69/108/47
f 62/109/48 72/110/48 126/111/48 125/112/48
f 74/113/49 64/114/49 63/115/49 73/63/49
f 71/44/50 61/116/50 64/114/50 74/113/50
f 77/117/51 67/118/51 66/119/51 76/120/51
f 190/121/52 189/122/52 65/123/52 75/45/52
f 72/110/53 62/109/53 67/118/53 77/117/53
f 88/124/54 60/106/54 63/115/54 91/125/54
f 89/126/55 61/116/55 65/123/55 93/127/55
f 26/47/56 72/110/56 77/117/56 31/48/56
f 185/53/57 190/121/57 75/45/57 29/43/57
f 31/48/58 77/117/58 76/120/58 30/50/58
f 25/40/59 71/44/59 74/113/59 28/54/59
f 28/54/60 74/113/60 73/63/60 27/62/60
f 136/128/61 72/110/61 79/129/61 138/130/61
f 24/61/62 70/60/62 69/108/62 23/131/62
f 60/106/63 70/60/63 73/63/63 63/115/63
f 61/116/64 71/44/64 75/45/64 65/123/64
f 137/132/65 138/130/65 79/129/65 80/133/65
f 32/134/66 78/135/66 81/136/66 82/137/66
f 108/138/67 32/134/67 82/137/67 114/139/67
f 72/110/68 26/47/68 80/133/68 79/129/68
f 140/140/69 139/141/69 84/69/69 85/68/69
f 110/142/70 48/143/70 86/144/70 117/145/70
f 132/15/71 21/18/71 84/69/71 139/141/71
f 48/146/72 38/147/72 83/148/72 86/149/72
f 99/94/73 89/126/73 93/127/73 103/91/73
f 98/102/74 88/124/74 91/125/74 101/99/74
f 60/106/75 88/124/75 87/150/75 59/107/75
f 135/151/76 141/152/76 90/153/76 62/109/76
f 64/114/77 92/154/77 91/125/77 63/115/77
f 61/116/78 89/126/78 92/154/78 64/114/78
f 67/118/79 95/155/79 94/156/79 66/119/79
f 189/122/80 191/157/80 93/127/80 65/123/80
f 62/109/81 90/153/81 95/155/81 67/118/81
f 50/103/82 98/102/82 101/99/82 53/98/82
f 51/95/83 99/94/83 103/91/83 55/90/83
f 88/124/84 98/102/84 97/105/84 87/150/84
f 142/100/85 100/84/85 120/158/85 144/159/85
f 92/154/86 102/97/86 101/99/86 91/125/86
f 89/126/87 99/94/87 102/97/87 92/154/87
f 95/155/88 105/87/88 104/93/88 94/156/88
f 191/157/89 192/88/89 103/91/89 93/127/89
f 90/153/90 100/84/90 105/87/90 95/155/90
f 96/160/91 106/161/91 119/162/91 118/163/91
f 68/164/92 96/160/92 118/163/92 112/165/92
f 38/166/93 109/167/93 116/168/93 83/169/93
f 133/75/94 110/142/94 117/145/94 140/140/94
f 86/144/95 83/169/95 116/168/95 117/145/95
f 131/170/96 108/138/96 114/139/96 137/171/96
f 82/172/97 81/173/97 115/174/97 114/175/97
f 78/176/98 113/177/98 115/174/98 81/173/98
f 135/151/99 62/109/99 125/112/99 145/178/99
f 106/161/100 58/179/100 111/180/100 119/162/100
f 160/181/101 48/143/101 110/142/101 161/182/101
f 38/166/102 22/183/102 107/184/102 109/167/102
f 143/185/103 144/159/103 120/158/103 121/186/103
f 141/152/104 118/163/104 122/187/104 143/185/104
f 118/163/105 119/162/105 123/188/105 122/187/105
f 100/84/106 90/153/106 121/186/106 120/158/106
f 126/111/107 146/189/107 150/190/107 149/191/107
f 146/189/108 129/192/108 174/193/108 176/194/108
f 68/164/109 112/165/109 124/195/109 127/196/109
f 136/128/110 113/177/110 129/192/110 146/189/110
f 113/177/111 78/176/111 128/197/111 129/192/111
f 78/135/112 68/198/112 127/199/112 128/200/112
f 72/110/113 136/128/113 146/189/113 126/111/113
f 127/196/114 124/195/114 173/201/114 171/202/114
f 90/153/115 141/152/115 143/185/115 121/186/115
f 122/187/116 123/188/116 144/159/116 143/185/116
f 112/165/117 135/151/117 145/178/117 124/195/117
f 26/203/118 131/170/118 137/171/118 80/204/118
f 42/56/119 133/75/119 140/140/119 85/68/119
f 119/162/120 142/100/120 144/159/120 123/188/120
f 112/165/121 118/163/121 141/152/121 135/151/121
f 109/167/122 132/15/122 139/141/122 116/168/122
f 117/145/123 116/168/123 139/141/123 140/140/123
f 114/175/124 115/174/124 138/130/124 137/132/124
f 113/177/125 136/128/125 138/130/125 115/174/125
f 119/162/126 111/180/126 134/101/126 142/100/126
f 161/182/127 110/142/127 133/75/127 162/74/127
f 109/167/128 107/184/128 130/16/128 132/15/128
f 124/195/129 145/178/129 175/205/129 173/201/129
f 125/112/130 126/111/130 149/191/130 148/206/130
f 149/191/131 150/190/131 180/207/131 179/208/131
f 145/178/132 125/112/132 148/206/132 147/209/132
f 161/182/133 162/74/133 170/210/133 169/211/133
f 52/85/134 134/101/134 167/212/134 164/213/134
f 41/65/135 153/79/135 157/83/135 45/59/135
f 40/70/136 152/72/136 155/78/136 43/67/136
f 52/85/137 154/76/137 159/80/137 57/86/137
f 188/89/138 193/82/138 157/83/138 55/90/138
f 57/86/139 159/80/139 158/81/139 56/92/139
f 51/95/140 153/79/140 156/77/140 54/96/140
f 54/96/141 156/77/141 155/78/141 53/98/141
f 134/101/142 111/180/142 168/214/142 167/212/142
f 50/103/143 152/72/143 151/73/143 49/104/143
f 168/214/144 169/211/144 170/210/144 167/212/144
f 166/215/145 165/216/145 169/211/145 168/214/145
f 167/212/146 170/210/146 163/217/146 164/213/146
f 162/74/147 154/76/147 163/217/147 170/210/147
f 58/218/148 160/219/148 165/220/148 166/221/148
f 111/180/149 58/179/149 166/215/149 168/214/149
f 154/76/150 52/85/150 164/213/150 163/217/150
f 160/181/151 161/182/151 169/211/151 165/216/151
f 172/222/152 171/202/152 173/201/152 174/193/152
f 174/193/153 173/201/153 175/205/153 176/194/153
f 180/207/154 177/223/154 178/224/154 179/208/154
f 176/194/155 175/205/155 177/223/155 180/207/155
f 147/209/156 148/206/156 178/224/156 177/223/156
f 145/178/157 147/209/157 177/223/157 175/205/157
f 150/190/158 146/189/158 176/194/158 180/207/158
f 129/192/159 128/197/159 172/222/159 174/193/159
f 148/206/160 149/191/160 179/208/160 178/224/160
f 128/200/161 127/199/161 171/225/161 172/226/161
f 56/92/162 158/81/162 193/82/162 188/89/162
f 94/156/163 104/93/163 192/88/163 191/157/163
f 66/119/164 94/156/164 191/157/164 189/122/164
f 30/50/165 76/120/165 190/121/165 185/53/165
f 76/120/166 66/119/166 189/122/166 190/121/166
f 104/93/167 56/92/167 188/89/167 192/88/167
f 158/81/168 46/64/168 187/58/168 193/82/168
f 46/64/169 36/33/169 186/28/169 187/58/169
f 18/51/170 30/50/170 185/53/170 184/52/170
f 36/33/171 15/32/171 183/29/171 186/28/171
f 5/227/172 182/11/172 184/14/172 17/228/172
f 8/37/173 181/7/173 183/10/173 15/38/173
