# Blender v2.90.1 OBJ File: 'FukushimaBuildings.blend'
# www.blender.org
mtllib Vendingmachine.mtl
o VendingMachine_VendingMachine.001
v -10.502923 -0.021131 0.002374
v -8.881204 -0.019519 -0.001516
v -10.505440 2.789141 0.008415
v -8.886400 2.792799 0.001431
v -10.502989 1.506001 0.004372
v -8.883136 1.509366 0.009112
v -8.885936 2.688972 0.005218
v -10.506684 2.682939 0.012006
v -10.378894 -0.020712 0.002390
v -10.382895 2.786272 0.011105
v -10.379597 1.508254 0.002066
v -10.381119 2.684522 0.007830
v -9.011403 -0.018924 0.000671
v -9.017376 2.790412 0.003272
v -9.014698 1.510652 0.003415
v -9.016238 2.685578 0.000512
v -10.503847 0.814292 0.001617
v -8.877000 0.818380 -0.001695
v -10.378887 0.814305 0.007380
v -9.009641 0.817936 0.000755
v -10.502509 0.542156 0.004935
v -8.881083 0.544631 0.001709
v -10.374841 0.540870 -0.000445
v -9.009618 0.546002 -0.003334
v -9.316585 2.789790 0.011488
v -9.313245 1.510271 0.000930
v -9.317554 2.686361 0.001178
v -9.311232 -0.019632 0.000096
v -9.313937 0.815581 0.008989
v -9.309884 0.544636 -0.001919
v -8.878665 1.018641 -0.001671
v -10.377787 1.014019 0.004555
v -9.013055 1.017470 0.006682
v -10.503646 1.014645 0.009220
v -9.310538 1.017046 0.003109
v -10.252902 2.786654 0.013894
v -10.247978 1.506731 0.007808
v -10.251888 2.683596 0.002510
v -10.250097 0.815142 0.008134
v -10.249510 0.543403 0.007762
v -10.248671 -0.020665 0.004048
v -10.249945 1.015721 0.005684
v -10.503973 0.133518 0.003621
v -8.882003 0.134485 0.004452
v -10.375318 0.131994 -0.000282
v -9.013952 0.134718 -0.000990
v -9.253095 0.135133 0.001605
v -10.168869 0.133841 0.006048
v -10.504978 0.061708 0.001876
v -8.877645 0.063589 -0.003864
v -10.380239 0.061736 0.000443
v -9.011735 0.062973 -0.000419
v -9.209020 0.062979 -0.000495
v -10.198318 0.061252 0.000106
v -8.880154 1.374110 -0.002491
v -10.376935 1.367729 0.003396
v -9.015360 1.372105 0.005696
v -9.310792 1.372981 0.004489
v -10.502350 1.367956 0.005800
v -10.246555 1.368054 0.009275
v -9.675900 -0.020184 0.004095
v -9.679721 2.788918 0.008365
v -9.673063 1.508550 0.007322
v -9.680868 2.684618 0.008852
v -9.671645 0.814756 0.005360
v -9.670702 0.543266 0.005463
v -9.672596 1.015475 0.002796
v -9.676592 0.134083 0.000595
v -9.676750 0.061800 0.000865
v -9.675622 1.371271 0.003155
v -9.476381 -0.019938 -0.001290
v -9.485452 2.789804 0.010587
v -9.477817 1.509797 0.003020
v -9.482770 2.685667 0.010575
v -9.480986 0.815324 0.006110
v -9.475203 0.544066 0.000469
v -9.478230 1.016187 0.007737
v -9.475802 0.134316 0.002974
v -9.475319 0.062035 0.000684
v -9.481024 1.371581 0.005158
v -10.247439 1.506048 -0.054534
v -10.378974 1.507362 -0.060720
v -10.252587 2.683071 -0.059689
v -10.383490 2.681438 -0.054213
v -9.014061 1.511514 -0.065794
v -9.016597 2.685921 -0.063922
v -9.312457 1.510872 -0.061866
v -9.315693 2.685571 -0.062169
v -9.672622 1.508654 -0.053741
v -9.681431 2.684815 -0.048531
v -9.477508 1.510121 -0.054899
v -9.486316 2.686281 -0.049689
v -9.480456 1.016020 0.059856
v -9.675076 1.015699 0.070900
v -9.481764 1.371512 0.071803
v -9.675508 1.371202 0.062525
v -9.309353 0.548673 -0.124138
v -9.309142 0.813077 -0.061117
v -9.672636 0.811373 -0.058006
v -10.244377 0.808592 -0.058102
v -9.676339 0.547339 -0.116371
v -10.248409 0.546544 -0.114688
v -9.481748 0.811702 -0.056307
v -9.474861 0.548016 -0.117319
v -9.213204 0.062385 -0.077807
v -9.253069 0.135358 -0.084501
v -10.196554 0.060748 -0.078665
v -10.166245 0.133081 -0.080033
v -9.670854 0.133865 -0.082646
v -9.673223 0.061668 -0.081710
v -9.477769 0.134353 -0.077194
v -9.480117 0.061917 -0.076978
vt 0.917949 0.963018
vt 1.000000 0.963018
vt 1.000000 1.000000
vt 0.917949 1.000000
vt 0.917949 0.495312
vt 1.000000 0.495312
vt 1.000000 0.544379
vt 0.917949 0.544379
vt 0.000000 0.544379
vt 0.076923 0.544379
vt 0.076923 0.963018
vt 0.000000 0.963018
vt 0.000000 0.495312
vt 0.076923 0.495312
vt 0.076923 1.000000
vt 0.000000 1.000000
vt 0.510570 0.963018
vt 0.157118 0.963018
vt 0.157118 0.963018
vt 0.510570 0.963018
vt 0.733333 0.495312
vt 0.733333 0.544379
vt 0.733333 0.963018
vt 0.733333 1.000000
vt 0.733333 0.200703
vt 0.917949 0.200703
vt 0.917949 0.297337
vt 0.733333 0.297337
vt 0.000000 0.200703
vt 0.076923 0.200703
vt 0.076923 0.297337
vt 0.000000 0.297337
vt 1.000000 0.200703
vt 1.000000 0.297337
vt 0.917949 0.054893
vt 1.000000 0.054893
vt 0.000000 0.054893
vt 0.076923 0.054893
vt 0.767564 0.054893
vt 0.630862 0.054893
vt 0.630862 0.200703
vt 0.630862 0.297337
vt 0.510570 0.297337
vt 0.510570 0.297337
vt 0.630862 0.297337
vt 0.630862 0.963018
vt 0.630862 1.000000
vt 0.630862 0.495312
vt 0.630862 0.544379
vt 0.157118 0.544379
vt 0.157118 0.544379
vt 0.076923 0.544379
vt 0.733333 0.368771
vt 0.630862 0.368771
vt 0.917949 0.368771
vt 0.076923 0.368771
vt 0.000000 0.368771
vt 1.000000 0.368771
vt 0.157118 0.297337
vt 0.157118 0.368771
vt 0.917949 0.544379
vt 0.733333 0.544379
vt 0.157118 0.495312
vt 0.157118 1.000000
vt 0.157118 0.200703
vt 0.206819 0.054893
vt 0.076923 0.029162
vt 0.188087 0.029162
vt 0.794653 0.029162
vt 0.767564 0.054893
vt 0.794653 0.029162
vt 0.917949 0.029162
vt 0.000000 0.029162
vt 1.000000 0.029162
vt 0.917949 0.000000
vt 1.000000 0.000000
vt 0.000000 0.000000
vt 0.076923 0.000000
vt 0.733333 0.000000
vt 0.630862 0.000000
vt 0.630862 0.029162
vt 0.157118 0.000000
vt 0.510570 0.368771
vt 0.510570 0.495312
vt 0.510570 0.000000
vt 0.510570 0.029162
vt 0.630862 0.054893
vt 0.630862 0.963018
vt 0.510570 0.544379
vt 0.510570 1.000000
vt 0.157118 0.297337
vt 0.510570 0.054893
vt 0.510570 0.200703
vt 0.510570 0.368771
vt 0.510570 0.495312
vt 0.630862 0.029162
vt 0.510570 0.029162
vt 0.510570 0.544379
vt 0.733333 0.297337
vt 0.917949 0.963018
vt 0.733333 0.963018
vt 0.630862 0.544379
vt 0.076923 0.963018
vt 0.630862 0.368771
vt 0.630862 0.495312
vt 0.630862 0.200703
vt 0.733333 0.200703
vt 0.157118 0.200703
vt 0.510570 0.200703
vt 0.188087 0.029162
vt 0.510570 0.054893
vt 0.206819 0.054893
vn -0.0111 0.0048 0.9999
vn 0.0094 -0.0339 0.9994
vn -0.0397 0.0028 0.9992
vn 0.0261 -0.0056 0.9996
vn 0.0188 0.0101 0.9998
vn 0.0060 0.0015 1.0000
vn 0.0024 -1.0000 0.0027
vn -0.0062 0.0211 0.9998
vn 0.0147 -0.0626 0.9979
vn 0.0161 -0.0275 0.9995
vn -0.0016 -0.0083 1.0000
vn -0.0099 -0.0012 1.0000
vn -0.0402 0.0064 0.9992
vn 0.0362 -0.0015 0.9993
vn 0.0074 0.0076 0.9999
vn 0.0097 0.0080 0.9999
vn 0.0020 -0.9985 0.0556
vn 0.0255 -0.0494 0.9985
vn 0.0081 0.0207 0.9998
vn 0.0113 0.9999 -0.0125
vn 0.0052 0.0105 0.9999
vn 0.0077 -0.0001 1.0000
vn -0.0044 -0.0119 0.9999
vn 0.0405 -0.0144 0.9991
vn -0.0075 0.0132 0.9999
vn -0.0017 0.9999 0.0111
vn -0.0443 0.0094 0.9990
vn 0.0096 -0.0713 0.9974
vn -0.0350 -0.0153 0.9993
vn -0.0437 -0.0062 0.9990
vn -0.0153 -0.0328 0.9993
vn -0.8657 -0.5000 0.0232
vn 0.0058 -0.0088 0.9999
vn 0.0210 -0.0081 0.9997
vn -0.0074 -0.0546 0.9985
vn 0.0213 0.0204 0.9996
vn 0.0057 0.0149 0.9999
vn -0.0013 0.0110 0.9999
vn -0.0005 -0.0081 1.0000
vn -0.0042 0.0371 0.9993
vn -0.0271 -0.0033 0.9996
vn 0.0157 0.0018 0.9999
vn -0.0081 -0.0006 1.0000
vn 0.0281 0.0064 0.9996
vn 0.0612 0.0029 0.9981
vn 0.0079 -0.0056 1.0000
vn -0.0008 0.0440 0.9990
vn 0.0040 -1.0000 -0.0016
vn 0.0049 0.0125 0.9999
vn 0.0064 -1.0000 -0.0071
vn 0.0058 -0.0098 0.9999
vn -0.0006 -0.0525 0.9986
vn 0.0023 -0.9971 0.0765
vn 0.0072 -0.0074 0.9999
vn -0.9998 -0.0051 -0.0186
vn 0.0139 0.0076 0.9999
vn -0.0012 1.0000 -0.0015
vn -0.0148 0.0024 0.9999
vn -0.0038 1.0000 -0.0047
vn 0.0059 -0.0075 1.0000
vn -0.0101 0.0022 0.9999
vn 0.0051 -0.9989 0.0463
vn 0.0066 -0.0029 1.0000
vn 0.0095 -0.0006 1.0000
vn 0.0578 -0.0018 0.9983
vn -0.0027 -0.0006 1.0000
vn -0.0104 -0.0001 0.9999
vn 0.0060 -0.0044 1.0000
vn -0.0035 1.0000 0.0076
vn -0.0007 -1.0000 0.0035
vn 0.0039 -0.9996 0.0289
vn 0.0000 -1.0000 0.0014
vn 0.9999 0.0026 -0.0141
vn -1.0000 -0.0017 -0.0021
vn -0.0069 1.0000 0.0036
vn 0.0046 -0.0050 1.0000
vn 0.0027 -1.0000 0.0006
vn -0.0016 1.0000 0.0011
vn 0.9997 0.0054 0.0250
vn 0.0348 -0.2281 0.9730
vn 0.0020 -0.2135 0.9769
vn -0.0013 -0.2206 0.9754
vn -0.0028 0.9994 0.0332
vn -0.0005 0.9996 0.0295
vn 0.9993 -0.0103 0.0363
vn -0.9996 -0.0034 -0.0277
vn -0.0032 0.9994 0.0335
vn 0.0164 0.0517 0.9985
vn 0.0055 0.0147 0.9999
vn -0.0264 0.0088 0.9996
vn -0.0014 1.0000 -0.0040
vn 0.0018 -1.0000 0.0011
vn 0.0011 -1.0000 0.0058
vn -0.0027 1.0000 -0.0044
vn 0.9238 -0.3818 0.0275
usemtl VendingMachine
s off
f 16/1/1 7/2/1 4/3/1 14/4/1
f 57/5/2 55/6/2 6/7/2 15/8/2
f 15/8/3 6/7/3 7/2/3 16/1/3
f 5/9/4 11/10/4 12/11/4 8/12/4
f 59/13/5 56/14/5 11/10/5 5/9/5
f 8/12/6 12/11/6 10/15/6 3/16/6
f 64/17/7 38/18/7 83/19/7 90/20/7
f 58/21/8 57/5/8 15/8/8 26/22/8
f 27/23/9 16/1/9 14/4/9 25/24/9
f 30/25/10 24/26/10 20/27/10 29/28/10
f 21/29/11 23/30/11 19/31/11 17/32/11
f 24/26/12 22/33/12 18/34/12 20/27/12
f 46/35/13 44/36/13 22/33/13 24/26/13
f 43/37/14 45/38/14 23/30/14 21/29/14
f 47/39/15 46/35/15 24/26/15 30/25/15
f 78/40/16 47/39/16 30/25/16 76/41/16
f 75/42/17 65/43/17 99/44/17 103/45/17
f 74/46/18 27/23/18 25/24/18 72/47/18
f 80/48/19 58/21/19 26/22/19 73/49/19
f 11/10/20 37/50/20 81/51/20 82/52/20
f 75/42/21 29/28/21 35/53/21 77/54/21
f 29/28/22 20/27/22 33/55/22 35/53/22
f 17/32/23 19/31/23 32/56/23 34/57/23
f 20/27/24 18/34/24 31/58/24 33/55/24
f 19/31/25 39/59/25 42/60/25 32/56/25
f 26/22/26 15/8/26 85/61/26 87/62/26
f 56/14/27 60/63/27 37/50/27 11/10/27
f 12/11/28 38/18/28 36/64/28 10/15/28
f 23/30/29 40/65/29 39/59/29 19/31/29
f 45/38/30 48/66/30 40/65/30 23/30/30
f 51/67/31 54/68/31 48/66/31 45/38/31
f 53/69/32 47/39/32 106/70/32 105/71/32
f 53/69/33 52/72/33 46/35/33 47/39/33
f 49/73/34 51/67/34 45/38/34 43/37/34
f 52/72/35 50/74/35 44/36/35 46/35/35
f 13/75/36 2/76/36 50/74/36 52/72/36
f 1/77/37 9/78/37 51/67/37 49/73/37
f 28/79/38 13/75/38 52/72/38 53/69/38
f 71/80/39 28/79/39 53/69/39 79/81/39
f 9/78/40 41/82/40 54/68/40 51/67/40
f 32/56/41 42/60/41 60/63/41 56/14/41
f 77/54/42 35/53/42 58/21/42 80/48/42
f 35/53/43 33/55/43 57/5/43 58/21/43
f 34/57/44 32/56/44 56/14/44 59/13/44
f 33/55/45 31/58/45 55/6/45 57/5/45
f 42/60/46 67/83/46 70/84/46 60/63/46
f 41/82/47 61/85/47 69/86/47 54/68/47
f 47/39/48 78/40/48 111/87/48 106/70/48
f 39/59/49 65/43/49 67/83/49 42/60/49
f 74/46/50 64/17/50 90/20/50 92/88/50
f 60/63/51 70/84/51 63/89/51 37/50/51
f 38/18/52 64/17/52 62/90/52 36/64/52
f 65/43/53 39/59/53 100/91/53 99/44/53
f 48/66/54 68/92/54 66/93/54 40/65/54
f 70/84/55 67/83/55 94/94/55 96/95/55
f 61/85/56 71/80/56 79/81/56 69/86/56
f 69/86/57 79/81/57 112/96/57 110/97/57
f 65/43/58 75/42/58 77/54/58 67/83/58
f 37/50/59 63/89/59 89/98/59 81/51/59
f 70/84/60 80/48/60 73/49/60 63/89/60
f 64/17/61 74/46/61 72/47/61 62/90/61
f 29/28/62 75/42/62 103/45/62 98/99/62
f 68/92/63 78/40/63 76/41/63 66/93/63
f 87/62/64 85/61/64 86/100/64 88/101/64
f 91/102/65 87/62/65 88/101/65 92/88/65
f 82/52/66 81/51/66 83/19/66 84/103/66
f 81/51/67 89/98/67 90/20/67 83/19/67
f 89/98/68 91/102/68 92/88/68 90/20/68
f 73/49/69 26/22/69 87/62/69 91/102/69
f 16/1/70 27/23/70 88/101/70 86/100/70
f 38/18/71 12/11/71 84/103/71 83/19/71
f 27/23/72 74/46/72 92/88/72 88/101/72
f 12/11/73 11/10/73 82/52/73 84/103/73
f 15/8/74 16/1/74 86/100/74 85/61/74
f 63/89/75 73/49/75 91/102/75 89/98/75
f 94/94/76 93/104/76 95/105/76 96/95/76
f 67/83/77 77/54/77 93/104/77 94/94/77
f 80/48/78 70/84/78 96/95/78 95/105/78
f 77/54/79 80/48/79 95/105/79 93/104/79
f 104/106/80 97/107/80 98/99/80 103/45/80
f 102/108/81 101/109/81 99/44/81 100/91/81
f 101/109/82 104/106/82 103/45/82 99/44/82
f 76/41/83 30/25/83 97/107/83 104/106/83
f 40/65/84 66/93/84 101/109/84 102/108/84
f 39/59/85 40/65/85 102/108/85 100/91/85
f 30/25/86 29/28/86 98/99/86 97/107/86
f 66/93/87 76/41/87 104/106/87 101/109/87
f 112/96/88 105/71/88 106/70/88 111/87/88
f 107/110/89 110/97/89 109/111/89 108/112/89
f 110/97/90 112/96/90 111/87/90 109/111/90
f 54/68/91 69/86/91 110/97/91 107/110/91
f 78/40/92 68/92/92 109/111/92 111/87/92
f 68/92/93 48/66/93 108/112/93 109/111/93
f 79/81/94 53/69/94 105/71/94 112/96/94
f 48/66/95 54/68/95 107/110/95 108/112/95
